<!--?xml version="1.0" standalone="no"?-->              <svg id="sw-js-blob-svg" viewBox="0 0 100 100" xmlns="http://www.w3.org/2000/svg">                    <defs>                         <linearGradient id="sw-gradient" x1="0" x2="1" y1="1" y2="0">                            <stop id="stop1" stop-color="rgba(248, 117, 55, 1)" offset="0%"></stop>                            <stop id="stop2" stop-color="rgba(251, 168, 31, 1)" offset="100%"></stop>                        </linearGradient>                    </defs>                <path fill="url(#sw-gradient)" d="M21.8,-25.3C29,-24.9,35.9,-19.4,35.4,-13.3C35,-7.2,27.2,-0.4,23.8,7C20.4,14.4,21.3,22.5,18,25.8C14.8,29,7.4,27.5,0,27.5C-7.4,27.5,-14.8,29,-22.1,27.1C-29.4,25.1,-36.6,19.7,-35,13.9C-33.3,8.2,-22.8,2.1,-19.9,-6.3C-16.9,-14.7,-21.5,-25.3,-19.5,-27.4C-17.4,-29.5,-8.7,-23.1,-0.7,-22.1C7.4,-21.2,14.7,-25.8,21.8,-25.3Z" width="100%" height="100%" transform="translate(50 50)" stroke-width="0" style="transition: 0.3s;"></path>              </svg>