<svg xmlns="http://www.w3.org/2000/svg" version="1.1" xmlns:xlink="http://www.w3.org/1999/xlink" xmlns:svgjs="http://svgjs.dev/svgjs" width="1440" height="560" preserveAspectRatio="none" viewBox="0 0 1440 560">
    <g mask="url(&quot;#SvgjsMask1074&quot;)" fill="none">
        <path d="M -181.29530298432206,279 C -85.3,311.4 106.7,459.6 298.70469701567794,441 C 490.7,422.4 586.7,187.8 778.704697015678,186 C 970.7,184.2 1066.7,427.2 1258.704697015678,432 C 1450.7,436.8 1702.45,200.4 1738.704697015678,210 C 1774.96,219.6 1499.74,426 1440,480" stroke="rgba(243, 106, 62, 1)" stroke-width="2"></path>
        <path d="M -708.3977727208337,379 C -612.4,332 -420.4,148 -228.39777272083367,144 C -36.4,140 59.6,360.8 251.60222727916633,359 C 443.6,357.2 539.6,126.2 731.6022272791663,135 C 923.6,143.8 1069.92,390.8 1211.6022272791663,403 C 1353.28,415.2 1394.32,237.4 1440,196" stroke="rgba(243, 106, 62, 1)" stroke-width="2"></path>
        <path d="M -533.3158080303876,138 C -437.32,189.6 -245.32,407.8 -53.31580803038765,396 C 138.68,384.2 234.68,82.8 426.68419196961236,79 C 618.68,75.2 714.68,372.8 906.6841919696124,377 C 1098.68,381.2 1280.02,90.2 1386.6841919696124,100 C 1493.35,109.8 1429.34,360.8 1440,426" stroke="rgba(243, 106, 62, 1)" stroke-width="2"></path>
        <path d="M -261.6542333758571,98 C -165.65,160.4 26.35,398.4 218.34576662414295,410 C 410.35,421.6 506.35,144.2 698.3457666241429,156 C 890.35,167.8 986.35,484.8 1178.345766624143,469 C 1370.35,453.2 1606.01,76.4 1658.345766624143,77 C 1710.68,77.6 1483.67,393 1440,472" stroke="rgba(243, 106, 62, 1)" stroke-width="2"></path>
    </g>
    <defs>
        <mask id="SvgjsMask1074">
            <rect width="1440" height="560" fill="#ffffff"></rect>
        </mask>
    </defs>
</svg>