<svg id="wave" style="transform:rotate(0deg); transition: 0.3s" viewBox="0 0 1440 490" version="1.1" xmlns="http://www.w3.org/2000/svg"><defs><linearGradient id="sw-gradient-0" x1="0" x2="0" y1="1" y2="0"><stop stop-color="rgba(243, 106, 62, 1)" offset="0%"></stop><stop stop-color="rgba(255, 179, 11, 1)" offset="100%"></stop></linearGradient></defs><path style="transform:translate(0, 0px); opacity:1" fill="url(#sw-gradient-0)" d="M0,245L60,269.5C120,294,240,343,360,367.5C480,392,600,392,720,383.8C840,376,960,359,1080,318.5C1200,278,1320,212,1440,187.8C1560,163,1680,180,1800,220.5C1920,261,2040,327,2160,310.3C2280,294,2400,196,2520,187.8C2640,180,2760,261,2880,245C3000,229,3120,114,3240,89.8C3360,65,3480,131,3600,147C3720,163,3840,131,3960,130.7C4080,131,4200,163,4320,204.2C4440,245,4560,294,4680,310.3C4800,327,4920,310,5040,310.3C5160,310,5280,327,5400,318.5C5520,310,5640,278,5760,253.2C5880,229,6000,212,6120,204.2C6240,196,6360,196,6480,187.8C6600,180,6720,163,6840,155.2C6960,147,7080,147,7200,163.3C7320,180,7440,212,7560,187.8C7680,163,7800,82,7920,40.8C8040,0,8160,0,8280,73.5C8400,147,8520,294,8580,367.5L8640,441L8640,490L8580,490C8520,490,8400,490,8280,490C8160,490,8040,490,7920,490C7800,490,7680,490,7560,490C7440,490,7320,490,7200,490C7080,490,6960,490,6840,490C6720,490,6600,490,6480,490C6360,490,6240,490,6120,490C6000,490,5880,490,5760,490C5640,490,5520,490,5400,490C5280,490,5160,490,5040,490C4920,490,4800,490,4680,490C4560,490,4440,490,4320,490C4200,490,4080,490,3960,490C3840,490,3720,490,3600,490C3480,490,3360,490,3240,490C3120,490,3000,490,2880,490C2760,490,2640,490,2520,490C2400,490,2280,490,2160,490C2040,490,1920,490,1800,490C1680,490,1560,490,1440,490C1320,490,1200,490,1080,490C960,490,840,490,720,490C600,490,480,490,360,490C240,490,120,490,60,490L0,490Z"></path><defs><linearGradient id="sw-gradient-1" x1="0" x2="0" y1="1" y2="0"><stop stop-color="rgba(243, 106, 62, 1)" offset="0%"></stop><stop stop-color="rgba(255, 179, 11, 1)" offset="100%"></stop></linearGradient></defs><path style="transform:translate(0, 50px); opacity:0.9" fill="url(#sw-gradient-1)" d="M0,392L60,334.8C120,278,240,163,360,138.8C480,114,600,180,720,171.5C840,163,960,82,1080,81.7C1200,82,1320,163,1440,179.7C1560,196,1680,147,1800,106.2C1920,65,2040,33,2160,49C2280,65,2400,131,2520,204.2C2640,278,2760,359,2880,367.5C3000,376,3120,310,3240,269.5C3360,229,3480,212,3600,228.7C3720,245,3840,294,3960,310.3C4080,327,4200,310,4320,326.7C4440,343,4560,392,4680,400.2C4800,408,4920,376,5040,375.7C5160,376,5280,408,5400,424.7C5520,441,5640,441,5760,441C5880,441,6000,441,6120,432.8C6240,425,6360,408,6480,343C6600,278,6720,163,6840,130.7C6960,98,7080,147,7200,204.2C7320,261,7440,327,7560,294C7680,261,7800,131,7920,73.5C8040,16,8160,33,8280,73.5C8400,114,8520,180,8580,212.3L8640,245L8640,490L8580,490C8520,490,8400,490,8280,490C8160,490,8040,490,7920,490C7800,490,7680,490,7560,490C7440,490,7320,490,7200,490C7080,490,6960,490,6840,490C6720,490,6600,490,6480,490C6360,490,6240,490,6120,490C6000,490,5880,490,5760,490C5640,490,5520,490,5400,490C5280,490,5160,490,5040,490C4920,490,4800,490,4680,490C4560,490,4440,490,4320,490C4200,490,4080,490,3960,490C3840,490,3720,490,3600,490C3480,490,3360,490,3240,490C3120,490,3000,490,2880,490C2760,490,2640,490,2520,490C2400,490,2280,490,2160,490C2040,490,1920,490,1800,490C1680,490,1560,490,1440,490C1320,490,1200,490,1080,490C960,490,840,490,720,490C600,490,480,490,360,490C240,490,120,490,60,490L0,490Z"></path></svg>