<svg xmlns="http://www.w3.org/2000/svg" version="1.1" xmlns:xlink="http://www.w3.org/1999/xlink" xmlns:svgjs="http://svgjs.dev/svgjs" width="1440" height="560" preserveAspectRatio="none" viewBox="0 0 1440 560">
    <g mask="url(&quot;#SvgjsMask1035&quot;)" fill="none">
        <path d="M -913.0317335237797,476 C -817.03,435.4 -625.03,302.4 -433.03173352377974,273 C -241.03,243.6 -145.03,375 46.968266476220265,329 C 238.97,283 334.97,29.4 526.9682664762203,43 C 718.97,56.6 824.36,377.2 1006.9682664762203,397 C 1189.57,416.8 1353.39,193 1440,142" stroke="rgba(209, 164, 21, 0.58)" stroke-width="2"></path>
        <path d="M -551.3459625211312,415 C -455.35,336.6 -263.35,2.2 -71.34596252113124,23 C 120.65,43.8 216.65,518.6 408.65403747886876,519 C 600.65,519.4 696.65,71 888.6540374788688,25 C 1080.65,-21 1258.38,239.2 1368.6540374788688,289 C 1478.92,338.8 1425.73,277 1440,274" stroke="rgba(209, 164, 21, 0.58)" stroke-width="2"></path>
        <path d="M -191.33337112559911,267 C -95.33,302.4 96.67,472.8 288.6666288744009,444 C 480.67,415.2 576.67,147 768.6666288744009,123 C 960.67,99 1056.67,330.4 1248.6666288744009,324 C 1440.67,317.6 1690.4,69.2 1728.6666288744009,91 C 1766.93,112.8 1497.73,364.6 1440,433" stroke="rgba(209, 164, 21, 0.58)" stroke-width="2"></path>
        <path d="M -247.3239479910352,453 C -151.32,374 40.68,56.6 232.6760520089648,58 C 424.68,59.4 520.68,466.4 712.6760520089648,460 C 904.68,453.6 1000.68,6.8 1192.6760520089647,26 C 1384.68,45.2 1623.21,534.4 1672.6760520089647,556 C 1722.14,577.6 1486.54,218.4 1440,134" stroke="rgba(209, 164, 21, 0.58)" stroke-width="2"></path>
        <path d="M -391.6842116457007,391 C -295.68,341.8 -103.68,144 88.3157883542993,145 C 280.32,146 376.32,382.2 568.3157883542993,396 C 760.32,409.8 856.32,207.2 1048.3157883542992,214 C 1240.32,220.8 1449.98,470.6 1528.3157883542992,430 C 1606.65,389.4 1457.66,94.8 1440,11" stroke="rgba(209, 164, 21, 0.58)" stroke-width="2"></path>
        <path d="M -488.4623191020054,69 C -392.46,124 -200.46,322.2 -8.462319102005367,344 C 183.54,365.8 279.54,148.4 471.5376808979946,178 C 663.54,207.6 759.54,508.6 951.5376808979946,492 C 1143.54,475.4 1333.85,81.6 1431.5376808979947,95 C 1529.23,108.4 1438.31,466.2 1440,559" stroke="rgba(209, 164, 21, 0.58)" stroke-width="2"></path>
        <path d="M -102.55286727529239,7 C -6.55,99.6 185.45,450 377.4471327247076,470 C 569.45,490 665.45,90.2 857.4471327247077,107 C 1049.45,123.8 1145.45,534.6 1337.4471327247077,554 C 1529.45,573.4 1796.94,203.4 1817.4471327247077,204 C 1837.96,204.6 1515.49,486.4 1440,557" stroke="rgba(209, 164, 21, 0.58)" stroke-width="2"></path>
        <path d="M -365.9904037421797,374 C -269.99,308.2 -77.99,38.2 114.00959625782029,45 C 306.01,51.8 402.01,410 594.0095962578202,408 C 786.01,406 882.01,9.4 1074.0095962578202,35 C 1266.01,60.6 1480.81,525.2 1554.0095962578202,536 C 1627.21,546.8 1462.8,178.4 1440,89" stroke="rgba(209, 164, 21, 0.58)" stroke-width="2"></path>
    </g>
    <defs>
        <mask id="SvgjsMask1035">
            <rect width="1440" height="560" fill="#ffffff"></rect>
        </mask>
    </defs>
</svg>