<?xml version="1.0" standalone="no"?>
<svg xmlns:xlink="http://www.w3.org/1999/xlink" id="wave" style="transform:rotate(0deg); transition: 0.3s" viewBox="0 0 1440 490" version="1.1" xmlns="http://www.w3.org/2000/svg"><defs><linearGradient id="sw-gradient-0" x1="0" x2="0" y1="1" y2="0"><stop stop-color="rgba(64, 179, 209, 0.8)" offset="0%"/><stop stop-color="rgba(53, 140, 167, 0.8)" offset="100%"/></linearGradient></defs><path style="transform:translate(0, 0px); opacity:1" fill="url(#sw-gradient-0)" d="M0,294L26.7,277.7C53.3,261,107,229,160,212.3C213.3,196,267,196,320,204.2C373.3,212,427,229,480,245C533.3,261,587,278,640,277.7C693.3,278,747,261,800,269.5C853.3,278,907,310,960,326.7C1013.3,343,1067,343,1120,334.8C1173.3,327,1227,310,1280,261.3C1333.3,212,1387,131,1440,138.8C1493.3,147,1547,245,1600,253.2C1653.3,261,1707,180,1760,138.8C1813.3,98,1867,98,1920,155.2C1973.3,212,2027,327,2080,310.3C2133.3,294,2187,147,2240,114.3C2293.3,82,2347,163,2400,228.7C2453.3,294,2507,343,2560,367.5C2613.3,392,2667,392,2720,359.3C2773.3,327,2827,261,2880,236.8C2933.3,212,2987,229,3040,196C3093.3,163,3147,82,3200,40.8C3253.3,0,3307,0,3360,8.2C3413.3,16,3467,33,3520,106.2C3573.3,180,3627,310,3680,351.2C3733.3,392,3787,343,3813,318.5L3840,294L3840,490L3813.3,490C3786.7,490,3733,490,3680,490C3626.7,490,3573,490,3520,490C3466.7,490,3413,490,3360,490C3306.7,490,3253,490,3200,490C3146.7,490,3093,490,3040,490C2986.7,490,2933,490,2880,490C2826.7,490,2773,490,2720,490C2666.7,490,2613,490,2560,490C2506.7,490,2453,490,2400,490C2346.7,490,2293,490,2240,490C2186.7,490,2133,490,2080,490C2026.7,490,1973,490,1920,490C1866.7,490,1813,490,1760,490C1706.7,490,1653,490,1600,490C1546.7,490,1493,490,1440,490C1386.7,490,1333,490,1280,490C1226.7,490,1173,490,1120,490C1066.7,490,1013,490,960,490C906.7,490,853,490,800,490C746.7,490,693,490,640,490C586.7,490,533,490,480,490C426.7,490,373,490,320,490C266.7,490,213,490,160,490C106.7,490,53,490,27,490L0,490Z"/><defs><linearGradient id="sw-gradient-1" x1="0" x2="0" y1="1" y2="0"><stop stop-color="rgba(53, 140, 167, 0.8)" offset="0%"/><stop stop-color="rgba(53, 130, 167, 1)" offset="100%"/></linearGradient></defs><path style="transform:translate(0, 50px); opacity:0.9" fill="url(#sw-gradient-1)" d="M0,147L26.7,122.5C53.3,98,107,49,160,40.8C213.3,33,267,65,320,138.8C373.3,212,427,327,480,343C533.3,359,587,278,640,236.8C693.3,196,747,196,800,171.5C853.3,147,907,98,960,130.7C1013.3,163,1067,278,1120,277.7C1173.3,278,1227,163,1280,163.3C1333.3,163,1387,278,1440,310.3C1493.3,343,1547,294,1600,277.7C1653.3,261,1707,278,1760,253.2C1813.3,229,1867,163,1920,147C1973.3,131,2027,163,2080,147C2133.3,131,2187,65,2240,57.2C2293.3,49,2347,98,2400,147C2453.3,196,2507,245,2560,228.7C2613.3,212,2667,131,2720,155.2C2773.3,180,2827,310,2880,302.2C2933.3,294,2987,147,3040,130.7C3093.3,114,3147,229,3200,277.7C3253.3,327,3307,310,3360,253.2C3413.3,196,3467,98,3520,65.3C3573.3,33,3627,65,3680,138.8C3733.3,212,3787,327,3813,383.8L3840,441L3840,490L3813.3,490C3786.7,490,3733,490,3680,490C3626.7,490,3573,490,3520,490C3466.7,490,3413,490,3360,490C3306.7,490,3253,490,3200,490C3146.7,490,3093,490,3040,490C2986.7,490,2933,490,2880,490C2826.7,490,2773,490,2720,490C2666.7,490,2613,490,2560,490C2506.7,490,2453,490,2400,490C2346.7,490,2293,490,2240,490C2186.7,490,2133,490,2080,490C2026.7,490,1973,490,1920,490C1866.7,490,1813,490,1760,490C1706.7,490,1653,490,1600,490C1546.7,490,1493,490,1440,490C1386.7,490,1333,490,1280,490C1226.7,490,1173,490,1120,490C1066.7,490,1013,490,960,490C906.7,490,853,490,800,490C746.7,490,693,490,640,490C586.7,490,533,490,480,490C426.7,490,373,490,320,490C266.7,490,213,490,160,490C106.7,490,53,490,27,490L0,490Z"/></svg>